<?xml version="1.0" encoding="utf-8"?>
<!-- Generator: Adobe Illustrator 25.4.1, SVG Export Plug-In . SVG Version: 6.00 Build 0)  -->
<svg version="1.1" id="Слой_1" xmlns="http://www.w3.org/2000/svg" xmlns:xlink="http://www.w3.org/1999/xlink" x="0px" y="0px"
	 viewBox="0 0 256 256" style="enable-background:new 0 0 256 256;" xml:space="preserve">
<style type="text/css">
	.st0{fill:#030303;}
	.st1{fill:url(#SVGID_1_);}
	.st2{fill:#FFFFFF;}
	.st3{fill:#040404;}
</style>
<g>
	<g>
		<path class="st0" d="M131.9,155.2c-0.7,0.7-1.6,1.3-2.7,1.8c-1.1,0.5-2.3,0.7-3.6,0.7c-2,0-3.4-0.5-4.3-1.4
			c-0.9-1-1.4-2.2-1.4-3.7c0-2.1,0.5-4.1,1.4-5.8c1-1.7,2.2-3.1,3.8-4.1c1.6-1,3.4-1.5,5.2-1.5c0.7,0,1.4,0.2,2,0.5
			c0.6,0.3,1.1,0.8,1.5,1.5c0.4,0.6,0.5,1.4,0.5,2.2c0,0.5-0.2,0.9-0.5,1.2c-0.4,0.3-0.9,0.5-1.5,0.5c-0.5,0-0.8-0.1-1-0.4
			c-0.2-0.3-0.3-0.6-0.3-1l0-0.8c0-0.3-0.2-0.6-0.5-0.8c-0.3-0.3-0.6-0.4-0.9-0.4c-0.9,0-1.9,0.4-3,1.2c-1.1,0.8-2,1.9-2.7,3.3
			c-0.7,1.4-1.1,2.9-1.1,4.5c0,0.7,0.3,1.3,0.9,1.8c0.6,0.5,1.3,0.7,2.2,0.7c0.3,0,0.7-0.1,1.1-0.3c0.5-0.2,0.9-0.4,1.3-0.7
			c0.4-0.3,0.7-0.6,0.8-0.8c0.2-0.4,0.5-0.9,0.8-1.4c0.4-0.5,0.7-0.8,1.1-0.8c0.8,0,1.4,0.2,1.7,0.5c0.3,0.4,0.5,0.7,0.5,1.2
			C133.1,153.7,132.7,154.4,131.9,155.2z"/>
		<path class="st0" d="M136.5,156.3c-0.8-1-1.2-2.2-1.2-3.7c0-1.3,0.3-2.4,0.9-3.6c0.6-1.1,1.4-2,2.5-2.7c1-0.7,2.2-1,3.5-1
			c1.2,0,2.3,0.4,3.1,1.2c0.8,0.8,1.2,2,1.2,3.6c0,1.1-0.3,2.3-0.9,3.5c-0.6,1.2-1.4,2.2-2.5,3c-1,0.8-2.1,1.2-3.2,1.2
			C138.4,157.7,137.3,157.2,136.5,156.3z M141.8,154.8c0.5-0.6,1-1.5,1.3-2.4c0.3-1,0.5-1.9,0.5-2.9c0-1.4-0.6-2.2-1.8-2.2
			c-0.7,0-1.3,0.3-1.8,0.9c-0.5,0.6-1,1.4-1.3,2.3c-0.3,0.9-0.5,1.8-0.5,2.6c0,0.5,0.1,0.9,0.3,1.3s0.5,0.7,0.8,0.9
			c0.3,0.2,0.6,0.3,0.9,0.3C140.7,155.8,141.2,155.5,141.8,154.8z"/>
		<path class="st0" d="M148.9,146c0-0.2,0.2-0.3,0.5-0.4c0.4-0.1,0.8-0.2,1.5-0.2c0.6,0,1,0.1,1.3,0.4c0.3,0.3,0.4,0.7,0.5,1.1
			l-0.4,1.6c0.3-0.5,0.8-0.9,1.4-1.3c0.6-0.4,1.2-0.8,1.9-1c0.6-0.3,1.1-0.4,1.5-0.4c0.9,0,1.5,0.2,1.9,0.5c0.4,0.3,0.6,0.8,0.6,1.5
			c-1,2.5-1.6,5.2-1.9,8l0.3,1.2c-0.2,0.4-0.5,0.7-0.8,0.9c-0.3,0.2-0.9,0.3-1.5,0.3c-0.4,0-0.7-0.1-0.8-0.4c-0.2-0.3-0.3-0.6-0.3-1
			c0-1.1,0.2-2.3,0.5-3.6c0.3-1.3,0.7-2.6,1.1-4c0.2-0.5,0.2-0.8,0.2-0.8c0-0.2-0.1-0.3-0.4-0.3c-0.4,0-0.9,0.3-1.6,0.8
			c-0.7,0.5-1.5,1.3-2.2,2.5c-0.8,1.2-1.4,2.7-1.8,4.7c0,0.1-0.1,0.3-0.1,0.5c0,0.3-0.2,0.4-0.4,0.5s-0.5,0.2-1,0.2
			c-0.5,0-0.9-0.1-1.2-0.2c-0.3-0.1-0.4-0.4-0.4-0.7c0-0.2,0.1-0.5,0.2-0.8c0.9-3.8,1.7-6.7,2.2-8.7l-0.6-0.7
			C149,146.1,148.9,146,148.9,146z"/>
		<path class="st0" d="M162.5,157.4c-0.2-0.1-0.4-0.2-0.4-0.4c-0.1-0.1-0.1-0.4-0.2-0.8l0-0.2c-0.1-0.8-0.3-2.4-0.4-4.7
			c-0.2-2.3-0.2-3.9-0.2-4.9c0-0.3,0.1-0.5,0.4-0.6c0.3-0.2,0.6-0.3,1-0.3c0.9,0,1.3,0.4,1.3,1.2l0.1,3.3c0.1,2.2,0.2,3.8,0.2,5
			c0.9-1.9,1.9-3.9,3.2-6.2c1.3-2.2,2.1-3.4,2.6-3.4c0.6,0,1.1,0.1,1.4,0.2c0.4,0.2,0.6,0.5,0.6,1c0,0.2-0.2,0.5-0.5,1.1l-2.1,3.4
			c-1.1,1.8-2,3.1-2.6,4s-1,1.5-1.3,1.8c-0.2,0.2-0.4,0.3-0.8,0.4c-0.3,0.1-0.7,0.2-1.1,0.2C163,157.6,162.7,157.5,162.5,157.4z"/>
		<path class="st0" d="M172.7,156.8c-0.7-0.6-1.1-1.5-1.1-2.5c0-1.5,0.4-3,1.1-4.3c0.8-1.3,1.8-2.3,3.1-3.1c1.3-0.8,2.7-1.1,4.2-1.1
			c0.9,0,1.7,0.3,2.3,0.8c0.6,0.5,0.9,1.3,0.9,2.2c0,1.1-0.4,2-1.2,2.6c-0.8,0.6-1.8,1.1-3.1,1.4c-1.2,0.3-2.7,0.5-4.4,0.7
			c-0.1,0.2-0.1,0.5-0.1,0.8c0,0.5,0.2,0.8,0.6,1c0.4,0.2,0.9,0.4,1.6,0.4c0.5,0,1.1-0.1,1.8-0.3c0.7-0.2,1.2-0.6,1.5-1
			c0.2-0.3,0.4-0.5,0.7-0.7c0.3-0.2,0.6-0.2,0.9-0.2c0.3,0,0.5,0.1,0.6,0.3c0.2,0.2,0.2,0.4,0.2,0.8c-0.2,0.5-0.6,1-1.1,1.6
			c-0.6,0.5-1.3,1-2.2,1.3c-0.9,0.3-1.8,0.5-2.9,0.5C174.6,157.7,173.5,157.4,172.7,156.8z M177.3,150.9c0.9-0.2,1.6-0.4,2.3-0.9
			c0.7-0.4,1-1,1-1.6c0-0.2-0.1-0.4-0.3-0.5c-0.2-0.1-0.4-0.2-0.7-0.2c-0.5,0-1,0.2-1.7,0.6c-0.6,0.4-1.2,0.8-1.7,1.4
			c-0.5,0.5-0.9,1-1.1,1.5C175.7,151.2,176.4,151.1,177.3,150.9z"/>
		<path class="st0" d="M187.2,156.9c0,0.3-0.2,0.5-0.4,0.6c-0.2,0.1-0.5,0.2-1,0.2c-0.5,0-0.9-0.1-1.2-0.2c-0.3-0.1-0.4-0.4-0.4-0.7
			c0.1-0.6,0.3-1.8,0.6-3.4c0.1-0.5,0.2-1.4,0.5-2.5c0.2-1.1,0.4-1.9,0.5-2.4c0.2-1.1,0.4-1.9,0.7-2.3c0.3-0.4,0.6-0.5,1.1-0.5
			c0.6,0,0.9,0.1,1.1,0.2c0.2,0.2,0.3,0.4,0.3,0.6l-0.2,1.4c0.5-0.6,1.1-1.1,1.7-1.6c0.7-0.4,1.3-0.6,1.8-0.6c0.7,0,1.3,0.1,1.7,0.4
			c0.4,0.3,0.6,0.6,0.6,1c0,0.3-0.2,0.5-0.5,0.7c-0.3,0.2-0.8,0.3-1.4,0.3c-0.9,0.1-1.8,0.5-2.6,1.1c-0.9,0.7-1.5,1.5-1.9,2.4
			l-0.9,4.7C187.3,156.4,187.3,156.6,187.2,156.9z"/>
		<path class="st0" d="M197.7,154.5c0,0.4,0.1,0.7,0.3,0.9c0.2,0.2,0.5,0.3,0.8,0.3c0.5,0,0.9-0.1,1.2-0.4c0.3-0.3,0.6-0.7,1-1.2
			c0.3-0.4,0.5-0.6,0.6-0.8c0.2-0.2,0.3-0.2,0.6-0.2c0.4,0,0.7,0.1,0.9,0.2c0.2,0.1,0.3,0.3,0.3,0.6c0,0.1,0,0.3,0,0.5
			c0,0.2-0.1,0.4-0.1,0.4c-0.4,0.8-1,1.5-1.9,2.1c-0.9,0.6-1.9,0.9-3,0.9c-1.1,0-2-0.3-2.5-0.8c-0.6-0.5-0.8-1.3-0.8-2.3
			c0-0.1,0.1-0.5,0.2-1.1c0.1-0.6,0.3-1.3,0.6-2.2l0.7-2.8l-1.5,0.1c-0.2,0-0.3-0.1-0.4-0.2c-0.1-0.1-0.1-0.3-0.1-0.5
			c0-0.4,0.1-0.8,0.4-1.2c0,0,0.2-0.1,0.5-0.1c0.3,0,0.6-0.1,1.1-0.1l0.7-0.1l0.8-3.5c0.2-0.4,0.4-0.7,0.7-1
			c0.3-0.2,0.6-0.4,0.9-0.4c0.3,0,0.6,0.1,0.8,0.3c0.2,0.2,0.3,0.4,0.4,0.7l-0.9,3.6c0.6-0.1,1.2-0.1,1.8-0.2c0.5-0.1,1-0.1,1.3-0.1
			c0.6,0,0.9,0.4,0.9,1.1c0,0.3-0.1,0.5-0.4,0.7c-0.2,0.2-0.5,0.4-0.8,0.4l-3.4,0.3L197.7,154.5z"/>
		<path class="st0" d="M205.7,156.8c-0.7-0.6-1.1-1.5-1.1-2.5c0-1.6,0.3-3,1-4.3c0.6-1.3,1.5-2.3,2.7-3c1.1-0.7,2.5-1.1,3.9-1.1
			c0.9,0,1.7,0.3,2.3,0.8c0.6,0.5,0.9,1.3,0.9,2.3c0,1.1-0.4,1.9-1.1,2.5c-0.7,0.6-1.6,1.1-2.7,1.3c-1.1,0.3-2.5,0.5-4.2,0.6
			c0,0.2-0.1,0.5-0.1,0.8c0,0.5,0.2,0.8,0.6,1c0.4,0.2,0.9,0.4,1.6,0.4c0.5,0,1.1-0.1,1.8-0.3c0.7-0.2,1.2-0.6,1.5-1
			c0.2-0.3,0.5-0.5,0.7-0.7c0.3-0.2,0.6-0.2,0.8-0.2c0.3,0,0.5,0.1,0.6,0.3c0.2,0.2,0.3,0.4,0.3,0.8c-0.2,0.5-0.5,1-1.1,1.6
			c-0.6,0.5-1.3,1-2.1,1.3s-1.8,0.5-2.8,0.5C207.6,157.7,206.4,157.4,205.7,156.8z M211.2,150.6c1.1-0.4,1.6-1,1.6-2
			c0-0.2-0.1-0.4-0.3-0.5c-0.2-0.1-0.4-0.2-0.7-0.2c-0.5,0-1,0.2-1.5,0.5s-1,0.8-1.4,1.3s-0.7,1-0.9,1.5
			C209.1,151.2,210.1,151,211.2,150.6z"/>
		<path class="st0" d="M219.1,156.9c-0.1,0.3-0.2,0.5-0.4,0.6c-0.2,0.1-0.6,0.2-1,0.2c-0.5,0-0.9-0.1-1.2-0.2
			c-0.2-0.1-0.4-0.4-0.4-0.7c0-0.2,0.4-1.6,1-4.1c0.5-2,0.8-3.4,1-4.2c0.2-1.1,0.5-1.9,0.8-2.3c0.3-0.4,0.7-0.5,1.1-0.5
			c0.6,0,0.9,0.1,1.1,0.2c0.2,0.2,0.3,0.4,0.3,0.6l-0.3,1.4c0.5-0.6,1.1-1.1,1.8-1.6c0.7-0.4,1.3-0.6,1.8-0.6c0.7,0,1.2,0.1,1.6,0.4
			c0.4,0.2,0.6,0.6,0.6,0.9c0,0.3-0.2,0.5-0.5,0.7c-0.4,0.2-0.8,0.3-1.4,0.3c-0.9,0.1-1.8,0.5-2.7,1.1c-0.9,0.7-1.6,1.5-2,2.4
			l-1.2,4.7C219.2,156.4,219.1,156.6,219.1,156.9z"/>
	</g>
	<linearGradient id="SVGID_1_" gradientUnits="userSpaceOnUse" x1="94.3334" y1="148.6185" x2="114.4092" y2="148.6185">
		<stop  offset="0" style="stop-color:#31C3CB"/>
		<stop  offset="1" style="stop-color:#3080AC"/>
	</linearGradient>
	<circle class="st1" cx="104.4" cy="148.6" r="10"/>
	<path class="st2" d="M104.4,141.9l-3.3,7.1l2-0.3l-3.3,7.1l9-8.8l-3.4,0l2.9-5.1L104.4,141.9z"/>
</g>
<g>
	<g>
		<g>
			<g>
				<g>
					<defs>
						<path id="SVGID_00000039114392771293482390000016077761512637894291_" d="M115.4,126.3c0,1.6-1.3,2.9-2.9,2.9l-16.9,0h0
							c-0.4,0-0.8-0.1-1.1-0.2c-2-0.8-2.3-3.1-1.2-4.5c0,0,0,0,0,0.1c0,0,0-0.1,0.1-0.1c0-0.1,0.1-0.1,0.1-0.1l0,0l0,0
							c0,0,0.1-0.1,0.1-0.1c5.2-5.6,9.9-8.9,12.6-11.5l0,0c5.8-5.5,0.1-9.2-2-9.2c-2.3,0-4.3,1.2-5.2,2.8c-0.5,0.9-1.5,1.5-2.6,1.5
							c-1.3,0-2.4-0.9-2.8-2.1c0-0.1,0-0.1-0.1-0.2c0,0,0,0,0-0.1c-0.1-0.7-0.1-1.3,0.3-2c2.1-3.7,6.3-5.9,10.4-5.8l0,0
							c7.4,0,15.6,10.2,6,19.3c-2,1.9-4.6,3.8-7.5,6.4h9.8C114.1,123.3,115.4,124.6,115.4,126.3z M92.8,125.1c0-0.1,0.1-0.1,0.1-0.2
							C92.9,125,92.9,125.1,92.8,125.1z M93,124.9C93,124.9,93,124.9,93,124.9C93,124.9,93,124.9,93,124.9z M93,124.9
							c0-0.1,0.1-0.1,0.1-0.1C93,124.8,93,124.8,93,124.9z M93.1,124.6C93.1,124.7,93.1,124.7,93.1,124.6
							C93.1,124.7,93.1,124.7,93.1,124.6z M93.1,124.6c0-0.1,0.1-0.1,0.1-0.1C93.2,124.5,93.1,124.6,93.1,124.6z M93.2,124.5
							C93.2,124.5,93.2,124.4,93.2,124.5C93.3,124.5,93.2,124.5,93.2,124.5z M95.6,123.3c-0.1,0-0.2,0-0.2,0
							C95.4,123.3,95.5,123.3,95.6,123.3z M96.2,129.1C96.1,129.1,96.1,129.1,96.2,129.1C96.1,129.1,96.2,129.1,96.2,129.1z
							 M96.5,129C96.5,129,96.5,129,96.5,129C96.5,129,96.5,129,96.5,129z M96.7,128.9C96.7,128.9,96.7,128.9,96.7,128.9
							C96.7,128.9,96.7,128.9,96.7,128.9z M97,128.8C97,128.8,97,128.8,97,128.8C97,128.8,97,128.8,97,128.8z M97.3,128.6
							C97.3,128.6,97.3,128.6,97.3,128.6C97.2,128.6,97.3,128.6,97.3,128.6z M97.5,128.4C97.5,128.4,97.5,128.4,97.5,128.4
							C97.5,128.4,97.5,128.4,97.5,128.4z"/>
					</defs>
					
						<linearGradient id="SVGID_00000047054007464049299010000005442824631747540402_" gradientUnits="userSpaceOnUse" x1="104.0415" y1="128.7111" x2="104.0415" y2="97.1535">
						<stop  offset="0" style="stop-color:#31C3CB"/>
						<stop  offset="1" style="stop-color:#3080AC"/>
					</linearGradient>
					
						<use xlink:href="#SVGID_00000039114392771293482390000016077761512637894291_"  style="overflow:visible;fill:url(#SVGID_00000047054007464049299010000005442824631747540402_);"/>
					<clipPath id="SVGID_00000005268459183289921830000010124017446747073156_">
						<use xlink:href="#SVGID_00000039114392771293482390000016077761512637894291_"  style="overflow:visible;"/>
					</clipPath>
				</g>
			</g>
		</g>
	</g>
	<g>
		<path d="M174.4,101.9L174.4,101.9l-12,25.3v0c0,0,0,0.1-0.1,0.1c-0.1,0.1-0.1,0.2-0.2,0.2c-0.2,0.2-0.4,0.5-0.6,0.7l0,0l0,0
			c-0.1,0.1-0.2,0.1-0.3,0.2c0,0,0,0,0,0c-0.1,0.1-0.2,0.1-0.3,0.2c0,0,0,0,0,0c-0.1,0.1-0.2,0.1-0.3,0.1c-0.1,0.1-0.2,0.1-0.4,0.1
			l0,0l0,0c0,0,0,0-0.1,0h0c-0.1,0-0.2,0.1-0.3,0.1l0,0c0,0,0,0,0,0l0,0l0,0c-0.1,0-0.1,0-0.2,0c-0.1,0-0.1,0-0.2,0h0
			c-0.1,0-0.3,0-0.4,0c-0.1,0-0.1,0-0.2,0l0,0l0,0l0,0l0,0c0,0,0,0,0,0l0,0c-0.1,0-0.1,0-0.2,0c-0.1,0-0.1,0-0.2,0l0,0c0,0,0,0,0,0
			l0,0l0,0l0,0l0,0c-0.1,0-0.2,0-0.4-0.1c0,0-0.1,0-0.1,0c-0.1,0-0.1,0-0.2-0.1c0,0-0.1,0-0.1,0l0,0c-0.1,0-0.2-0.1-0.3-0.1
			s-0.2-0.1-0.3-0.1l0,0c-0.1-0.1-0.2-0.1-0.3-0.2l0,0c-0.1-0.1-0.2-0.1-0.3-0.2l0,0l0,0c-0.1-0.1-0.2-0.1-0.2-0.2l0,0
			c-0.1-0.1-0.1-0.2-0.2-0.2c0,0,0,0,0,0c-0.1-0.1-0.1-0.2-0.2-0.2c-0.1-0.1-0.1-0.2-0.2-0.3c0,0,0,0,0-0.1l0,0l-8.3-18.5
			l-10.1,18.7l0,0c-0.2,0.4-0.5,0.7-0.9,1l0,0l0,0c-0.1,0.1-0.2,0.1-0.3,0.2h0c-0.1,0.1-0.2,0.1-0.2,0.1c0,0,0,0-0.1,0
			c-0.1,0-0.2,0.1-0.2,0.1c-0.1,0-0.2,0.1-0.3,0.1l0,0l0,0c0,0-0.1,0-0.1,0c-0.1,0-0.1,0-0.2,0.1l0,0l0,0l0,0l0,0
			c-0.1,0-0.2,0-0.2,0.1c-0.1,0-0.2,0-0.2,0l0,0c-0.2,0-0.4,0-0.5,0c0,0-0.1,0-0.1,0l0,0l0,0c-1,0-1.9-0.4-2.6-0.9l0,0l0,0
			c-0.1-0.1-0.2-0.1-0.2-0.2l0,0c-0.1-0.1-0.1-0.1-0.2-0.2c0,0,0,0,0-0.1c-0.1-0.1-0.1-0.1-0.1-0.2c-0.1-0.1-0.1-0.2-0.1-0.3l0,0
			l0,0v0l0,0l-11.5-25.4l0,0c-0.1-0.3-0.2-0.7-0.2-1c0-1.6,1.6-2.9,3.7-2.9c1.6,0,2.9,0.8,3.4,1.9l0,0l8.3,18.5l10.1-18.6l0,0l0,0
			l0,0l0,0c0,0,0-0.1,0.1-0.1c0,0,0-0.1,0.1-0.1c0-0.1,0.1-0.1,0.1-0.1c0,0,0.1-0.1,0.1-0.1c0,0,0.1-0.1,0.1-0.1
			c0-0.1,0.1-0.1,0.1-0.1c0,0,0.1-0.1,0.1-0.1c0.1-0.1,0.1-0.1,0.1-0.1c0,0,0.1-0.1,0.1-0.1c0,0,0,0,0,0c0,0,0.1-0.1,0.1-0.1
			c0.1,0,0.1-0.1,0.1-0.1c0.1,0,0.1-0.1,0.1-0.1c0.1,0,0.1-0.1,0.2-0.1c0.1,0,0.1-0.1,0.1-0.1c0.1,0,0.1-0.1,0.2-0.1
			c0,0,0.1,0,0.1-0.1c0.1,0,0.2-0.1,0.2-0.1c0,0,0.1,0,0.1,0l0,0c0,0,0,0,0,0l0,0c0,0,0,0,0.1,0c0.1,0,0.1,0,0.2,0
			c0.1,0,0.1,0,0.2,0c0.1,0,0.1,0,0.1,0c0.1,0,0.2,0,0.2,0c0,0,0.1,0,0.1,0c0.1,0,0.2,0,0.4,0c0,0,0.1,0,0.1,0l0,0l0,0
			c0.1,0,0.1,0,0.1,0c0.1,0,0.1,0,0.2,0s0.1,0,0.2,0c0.1,0,0.1,0,0.2,0c0.1,0,0.1,0,0.2,0c0.1,0,0.1,0,0.2,0.1c0.1,0,0.1,0,0.1,0
			c0.1,0,0.1,0.1,0.2,0.1c0,0,0.1,0,0.1,0.1c0.1,0,0.1,0.1,0.2,0.1c0.1,0,0.1,0.1,0.1,0.1c0.1,0,0.1,0.1,0.2,0.1
			c0.1,0,0.1,0.1,0.1,0.1c0.1,0,0.1,0.1,0.1,0.1c0.1,0,0.1,0.1,0.1,0.1c0,0,0.1,0.1,0.1,0.1c0,0,0.1,0,0.1,0.1c0,0,0.1,0.1,0.1,0.1
			c0,0,0.1,0.1,0.1,0.1c0.1,0.1,0.1,0.1,0.1,0.1c0,0,0.1,0.1,0.1,0.1c0,0,0.1,0.1,0.1,0.1c0,0,0.1,0.1,0.1,0.1c0,0,0.1,0.1,0.1,0.1
			c0,0.1,0.1,0.1,0.1,0.1v0l0,0l0,0c0,0,0,0.1,0,0.1l0,0l8.1,17.9l8.5-18l0,0c0.5-1.1,1.8-1.9,3.4-1.9c2,0,3.7,1.3,3.7,2.9
			C174.7,101.2,174.6,101.6,174.4,101.9z"/>
	</g>
	<g>
		<path d="M212.1,129.1h-19.2c-9,0-16.4-7.3-16.4-16.4s7.3-16.4,16.4-16.4h19.2c9,0,16.4,7.3,16.4,16.4S221.1,129.1,212.1,129.1z
			 M192.9,102.6c-5.6,0-10.1,4.6-10.1,10.1s4.6,10.1,10.1,10.1h19.2c5.6,0,10.1-4.6,10.1-10.1s-4.6-10.1-10.1-10.1H192.9z"/>
	</g>
	<path class="st0" d="M46,106.8c-3.3,5.6-5.9,10.2-9.2,15.6c3.4,0,5.8-0.1,8.3,0c1.8,0.1,3.4,1,3.3,3c0,1.7-1.3,2.8-2.8,2.9
		c-4.9,0.2-9.9,0.4-14.7-0.1c-3-0.3-3.5-2.6-2-5.2c4.6-7.7,9-15.5,13.7-23.2c2.1-3.5,4.7-3.4,6.8,0.1c4.5,7.5,8.9,15.1,13.4,22.6
		c1.2,1.9,2,4-0.6,5.3c-2.5,1.3-3.9-0.4-5-2.4C53.7,119.6,50.1,113.8,46,106.8z"/>
	<path class="st3" d="M57.9,97.6c2.2,0.1,3.1,1.4,4,2.9c4.3,7.4,8.6,14.7,13,22c1.1,1.9,2.1,4-0.4,5.4c-2.4,1.4-3.9-0.2-5.1-2.2
		c-4.4-7.5-8.9-15-13.3-22.6C54.4,100.5,54.5,98.4,57.9,97.6z"/>
	<path class="st3" d="M70.6,97.6c2.2,0.1,3.1,1.2,4,2.8c4.3,7.4,8.6,14.7,13,22c1.1,1.9,2.1,4-0.2,5.4c-2.7,1.6-4.2-0.4-5.4-2.5
		c-4.3-7.4-8.6-14.7-13-22C67.4,100.7,67.2,98.6,70.6,97.6z"/>
</g>
</svg>
